ffmpeg started on 2016-12-10 at 01:56:29
Report written to "Output/x264/results/ffmpeg/sintelplacebo13000k.log"
Command line:
Tools/ffmpeg/ffmpeg -benchmark -y -i Input/y4m/sintel.y4m -c:v libx264 -preset placebo -b:v 13000k -an Output/x264/encoded/sintelplacebo13000k.mkv
ffmpeg version N-82227-gdb23fde Copyright (c) 2000-2016 the FFmpeg developers
  built with gcc 5.4.0 (Ubuntu 5.4.0-6ubuntu1~16.04.2) 20160609
  configuration: --prefix=/home/jaroslav/ffmpeg_build --pkg-config-flags=--static --extra-cflags=-I/home/jaroslav/ffmpeg_build/include --extra-ldflags=-L/home/jaroslav/ffmpeg_build/lib --bindir=/home/jaroslav/bin --enable-gpl --enable-libass --enable-libfdk-aac --enable-libfreetype --enable-libmp3lame --enable-libopus --enable-libtheora --enable-libvorbis --enable-libvpx --enable-libx264 --enable-libx265 --enable-nvenc --enable-libmfx --enable-libxvid --enable-libgsm --enable-libopencore-amrnb --enable-version3 --enable-nonfree
  libavutil      55. 35.100 / 55. 35.100
  libavcodec     57. 66.101 / 57. 66.101
  libavformat    57. 57.100 / 57. 57.100
  libavdevice    57.  2.100 / 57.  2.100
  libavfilter     6. 66.100 /  6. 66.100
  libswscale      4.  3.100 /  4.  3.100
  libswresample   2.  4.100 /  2.  4.100
  libpostproc    54.  2.100 / 54.  2.100
Input #0, yuv4mpegpipe, from 'Input/y4m/sintel.y4m':
  Duration: 00:00:20.83, start: 0.000000, bitrate: 2057307 kb/s
    Stream #0:0: Video: rawvideo (I420 / 0x30323449), yuv420p(progressive), 4096x1744, SAR 1:1 DAR 256:109, 24 fps, 24 tbr, 24 tbn, 24 tbc
[libx264 @ 0x44e31c0] using SAR=1/1
[libx264 @ 0x44e31c0] DPB size (16 frames, 446464 mbs) > level limit (6 frames, 184320 mbs)
[libx264 @ 0x44e31c0] using cpu capabilities: MMX2 SSE2Fast SSSE3 SSE4.2 AVX FMA3 AVX2 LZCNT BMI2
[libx264 @ 0x44e31c0] profile High, level 5.2
[libx264 @ 0x44e31c0] 264 - core 148 - H.264/MPEG-4 AVC codec - Copyleft 2003-2016 - http://www.videolan.org/x264.html - options: cabac=1 ref=16 deblock=1:0:0 analyse=0x3:0x133 me=tesa subme=11 psy=1 psy_rd=1.00:0.00 mixed_ref=1 me_range=24 chroma_me=1 trellis=2 8x8dct=1 cqm=0 deadzone=21,11 fast_pskip=0 chroma_qp_offset=-2 threads=6 lookahead_threads=1 sliced_threads=0 nr=0 decimate=1 interlaced=0 bluray_compat=0 constrained_intra=0 bframes=16 b_pyramid=2 b_adapt=2 b_bias=0 direct=3 weightb=1 open_gop=0 weightp=2 keyint=250 keyint_min=24 scenecut=40 intra_refresh=0 rc_lookahead=60 rc=abr mbtree=1 bitrate=13000 ratetol=1.0 qcomp=0.60 qpmin=0 qpmax=69 qpstep=4 ip_ratio=1.40 aq=1:1.00
Output #0, matroska, to 'Output/x264/encoded/sintelplacebo13000k.mkv':
  Metadata:
    encoder         : Lavf57.57.100
    Stream #0:0: Video: h264 (libx264) (H264 / 0x34363248), yuv420p, 4096x1744 [SAR 1:1 DAR 256:109], q=-1--1, 13000 kb/s, 24 fps, 1k tbn, 24 tbc
    Metadata:
      encoder         : Lavc57.66.101 libx264
    Side data:
      cpb: bitrate max/min/avg: 0/0/13000000 buffer size: 0 vbv_delay: -1
Stream mapping:
  Stream #0:0 -> #0:0 (rawvideo (native) -> h264 (libx264))
Press [q] to stop, [?] for help
frame=   10 fps=0.0 q=0.0 size=       0kB time=00:00:00.00 bitrate=N/A speed=   0x    frame=   18 fps= 17 q=0.0 size=       0kB time=00:00:00.00 bitrate=N/A speed=   0x    frame=   26 fps= 17 q=0.0 size=       0kB time=00:00:00.00 bitrate=N/A speed=   0x    frame=   34 fps= 16 q=0.0 size=       0kB time=00:00:00.00 bitrate=N/A speed=   0x    frame=   38 fps= 14 q=0.0 size=       0kB time=00:00:00.00 bitrate=N/A speed=   0x    frame=   46 fps= 14 q=0.0 size=       0kB time=00:00:00.00 bitrate=N/A speed=   0x    frame=   50 fps= 14 q=0.0 size=       0kB time=00:00:00.00 bitrate=N/A speed=   0x    frame=   58 fps= 14 q=0.0 size=       0kB time=00:00:00.00 bitrate=N/A speed=   0x    frame=   66 fps=8.2 q=0.0 size=       0kB time=00:00:00.00 bitrate=N/A speed=   0x    frame=   67 fps=5.9 q=0.0 size=       0kB time=00:00:00.00 bitrate=N/A speed=   0x    frame=   75 fps=6.3 q=0.0 size=       0kB time=00:00:00.00 bitrate=N/A speed=   0x    frame=   83 fps=6.7 q=0.0 size=       0kB time=00:00:00.00 bitrate=N/A speed=   0x    frame=   84 fps=1.3 q=0.0 size=       0kB time=00:00:00.00 bitrate=N/A speed=   0x    frame=   86 fps=1.3 q=0.0 size=       0kB time=00:00:00.00 bitrate=N/A speed=   0x    frame=   88 fps=1.3 q=22.0 size=       1kB time=-00:00:00.08 bitrate=N/A speed=N/A    frame=   90 fps=1.2 q=27.0 size=       1kB time=00:00:00.00 bitrate=5888.0kbits/s speed=1.32e-05x    frame=   92 fps=1.2 q=35.0 size=       1kB time=00:00:00.08 bitrate=  70.1kbits/s speed=0.00107x    frame=   93 fps=1.1 q=39.0 size=       1kB time=00:00:00.12 bitrate=  46.7kbits/s speed=0.00146x    frame=   94 fps=1.1 q=38.0 size=       1kB time=00:00:00.16 bitrate=  35.0kbits/s speed=0.00192x    frame=   96 fps=1.1 q=39.0 size=       1kB time=00:00:00.25 bitrate=  23.5kbits/s speed=0.00281x    frame=   98 fps=1.1 q=39.0 size=       1kB time=00:00:00.33 bitrate=  17.6kbits/s speed=0.00369x    frame=   99 fps=1.0 q=39.0 size=       1kB time=00:00:00.37 bitrate=  15.7kbits/s speed=0.00376x    frame=  100 fps=1.0 q=39.0 size=       1kB time=00:00:00.41 bitrate=  14.1kbits/s speed=0.00414x    frame=  101 fps=1.0 q=39.0 size=       1kB time=00:00:00.45 bitrate=  12.8kbits/s speed=0.00441x    frame=  102 fps=1.0 q=39.0 size=       1kB time=00:00:00.50 bitrate=  11.8kbits/s speed=0.00477x    frame=  103 fps=1.0 q=39.0 size=       1kB time=00:00:00.54 bitrate=  10.8kbits/s speed=0.00511x    frame=  104 fps=1.0 q=39.0 size=       1kB time=00:00:00.58 bitrate=  10.1kbits/s speed=0.00536x    frame=  105 fps=0.9 q=39.0 size=       1kB time=00:00:00.62 bitrate=   9.4kbits/s speed=0.00534x    frame=  106 fps=0.9 q=39.0 size=       1kB time=00:00:00.66 bitrate=   8.8kbits/s speed=0.0055x    frame=  107 fps=0.9 q=39.0 size=       1kB time=00:00:00.70 bitrate=   8.3kbits/s speed=0.00576x    frame=  108 fps=0.9 q=39.0 size=       1kB time=00:00:00.75 bitrate=   7.8kbits/s speed=0.00599x    frame=  109 fps=0.8 q=39.0 size=       1kB time=00:00:00.79 bitrate=   7.4kbits/s speed=0.00618x    frame=  110 fps=0.8 q=38.0 size=       1kB time=00:00:00.83 bitrate=   7.1kbits/s speed=0.00627x    frame=  111 fps=0.8 q=38.0 size=       1kB time=00:00:00.87 bitrate=   6.7kbits/s speed=0.00623x    frame=  112 fps=0.8 q=38.0 size=       1kB time=00:00:00.91 bitrate=   6.4kbits/s speed=0.00638x    frame=  113 fps=0.8 q=38.0 size=       1kB time=00:00:00.95 bitrate=   6.1kbits/s speed=0.00645x    frame=  114 fps=0.8 q=38.0 size=       1kB time=00:00:01.00 bitrate=   5.9kbits/s speed=0.00666x    frame=  115 fps=0.8 q=38.0 size=       1kB time=00:00:01.04 bitrate=   5.6kbits/s speed=0.00688x    frame=  116 fps=0.8 q=38.0 size=       1kB time=00:00:01.08 bitrate=   5.4kbits/s speed=0.00705x    frame=  117 fps=0.7 q=38.0 size=       1kB time=00:00:01.12 bitrate=   5.2kbits/s speed=0.00691x    frame=  118 fps=0.7 q=38.0 size=       1kB time=00:00:01.16 bitrate=   5.0kbits/s speed=0.00704x    frame=  119 fps=0.7 q=38.0 size=       1kB time=00:00:01.20 bitrate=   4.9kbits/s speed=0.00709x    frame=  120 fps=0.7 q=38.0 size=       1kB time=00:00:01.25 bitrate=   4.7kbits/s speed=0.0072x    frame=  121 fps=0.7 q=37.0 size=       1kB time=00:00:01.29 bitrate=   4.6kbits/s speed=0.00734x    frame=  122 fps=0.7 q=37.0 size=       1kB time=00:00:01.33 bitrate=   4.4kbits/s speed=0.00744x    frame=  123 fps=0.7 q=37.0 size=       1kB time=00:00:01.37 bitrate=   4.3kbits/s speed=0.00735x    frame=  124 fps=0.7 q=37.0 size=       1kB time=00:00:01.41 bitrate=   4.2kbits/s speed=0.00746x    frame=  125 fps=0.6 q=37.0 size=       1kB time=00:00:01.45 bitrate=   4.0kbits/s speed=0.00749x    frame=  126 fps=0.6 q=37.0 size=       1kB time=00:00:01.50 bitrate=   3.9kbits/s speed=0.00761x    frame=  127 fps=0.6 q=37.0 size=       1kB time=00:00:01.54 bitrate=   3.8kbits/s speed=0.00773x    frame=  128 fps=0.6 q=37.0 size=       1kB time=00:00:01.58 bitrate=   3.7kbits/s speed=0.00779x    frame=  129 fps=0.6 q=37.0 size=       1kB time=00:00:01.62 bitrate=   3.6kbits/s speed=0.00773x    frame=  130 fps=0.6 q=37.0 size=       1kB time=00:00:01.66 bitrate=   3.5kbits/s speed=0.00784x    frame=  131 fps=0.6 q=37.0 size=       1kB time=00:00:01.70 bitrate=   3.4kbits/s speed=0.00785x    frame=  132 fps=0.6 q=36.0 size=       1kB time=00:00:01.75 bitrate=   3.4kbits/s speed=0.00793x    frame=  133 fps=0.6 q=36.0 size=       1kB time=00:00:01.79 bitrate=   3.3kbits/s speed=0.008x    frame=  134 fps=0.6 q=36.0 size=       1kB time=00:00:01.83 bitrate=   3.2kbits/s speed=0.00806x    frame=  135 fps=0.6 q=36.0 size=       1kB time=00:00:01.87 bitrate=   3.1kbits/s speed=0.00805x    frame=  136 fps=0.6 q=36.0 size=       1kB time=00:00:01.91 bitrate=   3.1kbits/s speed=0.00813x    frame=  137 fps=0.6 q=36.0 size=       1kB time=00:00:01.95 bitrate=   3.0kbits/s speed=0.00815x    frame=  138 fps=0.6 q=36.0 size=       1kB time=00:00:02.00 bitrate=   2.9kbits/s speed=0.00816x    frame=  139 fps=0.6 q=36.0 size=       1kB time=00:00:02.04 bitrate=   2.9kbits/s speed=0.0082x    frame=  140 fps=0.5 q=36.0 size=       1kB time=00:00:02.08 bitrate=   2.8kbits/s speed=0.00817x    frame=  141 fps=0.5 q=36.0 size=       1kB time=00:00:02.12 bitrate=   2.8kbits/s speed=0.00815x    frame=  142 fps=0.5 q=36.0 size=       1kB time=00:00:02.16 bitrate=   2.7kbits/s speed=0.00819x    frame=  143 fps=0.5 q=36.0 size=       1kB time=00:00:02.20 bitrate=   2.7kbits/s speed=0.00825x    frame=  144 fps=0.5 q=36.0 size=       1kB time=00:00:02.25 bitrate=   2.6kbits/s speed=0.00824x    frame=  145 fps=0.5 q=36.0 size=       1kB time=00:00:02.29 bitrate=   2.6kbits/s speed=0.00833x    frame=  146 fps=0.5 q=36.0 size=       1kB time=00:00:02.33 bitrate=   2.5kbits/s speed=0.00827x    frame=  147 fps=0.5 q=36.0 size=       1kB time=00:00:02.37 bitrate=   2.5kbits/s speed=0.00826x    frame=  148 fps=0.5 q=36.0 size=       1kB time=00:00:02.41 bitrate=   2.4kbits/s speed=0.00828x    frame=  149 fps=0.5 q=36.0 size=       1kB time=00:00:02.45 bitrate=   2.4kbits/s speed=0.00832x    frame=  150 fps=0.5 q=36.0 size=       1kB time=00:00:02.50 bitrate=   2.4kbits/s speed=0.00835x    frame=  151 fps=0.5 q=36.0 size=       1kB time=00:00:02.54 bitrate=   2.3kbits/s speed=0.00841x    frame=  152 fps=0.5 q=36.0 size=       1kB time=00:00:02.58 bitrate=   2.3kbits/s speed=0.0084x    frame=  153 fps=0.5 q=36.0 size=       1kB time=00:00:02.62 bitrate=   2.2kbits/s speed=0.00838x    frame=  154 fps=0.5 q=35.0 size=    5150kB time=00:00:02.66 bitrate=15812.8kbits/s speed=0.00838x    frame=  155 fps=0.5 q=35.0 size=    5150kB time=00:00:02.70 bitrate=15573.5kbits/s speed=0.00844x    frame=  156 fps=0.5 q=35.0 size=    5150kB time=00:00:02.75 bitrate=15335.8kbits/s speed=0.00851x    frame=  157 fps=0.5 q=35.0 size=    5150kB time=00:00:02.79 bitrate=15105.1kbits/s speed=0.00858x    frame=  158 fps=0.5 q=35.0 size=    5150kB time=00:00:02.83 bitrate=14886.6kbits/s speed=0.00863x    frame=  159 fps=0.5 q=35.0 size=    5150kB time=00:00:02.87 bitrate=14669.2kbits/s speed=0.00857x    frame=  160 fps=0.5 q=35.0 size=    5150kB time=00:00:02.91 bitrate=14458.1kbits/s speed=0.00861x    frame=  161 fps=0.5 q=35.0 size=    5150kB time=00:00:02.95 bitrate=14257.7kbits/s speed=0.0086x    frame=  162 fps=0.5 q=35.0 size=    5150kB time=00:00:03.00 bitrate=14058.2kbits/s speed=0.00867x    frame=  163 fps=0.5 q=35.0 size=    5150kB time=00:00:03.04 bitrate=13864.2kbits/s speed=0.00873x    frame=  164 fps=0.5 q=35.0 size=    5150kB time=00:00:03.08 bitrate=13679.9kbits/s speed=0.0088x    frame=  165 fps=0.5 q=35.0 size=    5150kB time=00:00:03.12 bitrate=13496.1kbits/s speed=0.00879x    frame=  166 fps=0.5 q=35.0 size=    5150kB time=00:00:03.16 bitrate=13317.1kbits/s speed=0.00881x    frame=  167 fps=0.5 q=35.0 size=    5150kB time=00:00:03.20 bitrate=13147.0kbits/s speed=0.00878x    frame=  168 fps=0.5 q=34.0 size=    5150kB time=00:00:03.25 bitrate=12977.1kbits/s speed=0.00883x    frame=  169 fps=0.5 q=34.0 size=    5150kB time=00:00:03.29 bitrate=12811.6kbits/s speed=0.00887x    frame=  170 fps=0.5 q=34.0 size=    5150kB time=00:00:03.33 bitrate=12654.1kbits/s speed=0.00893x    frame=  171 fps=0.5 q=34.0 size=    5150kB time=00:00:03.37 bitrate=12496.6kbits/s speed=0.00897x    frame=  172 fps=0.4 q=34.0 size=    5150kB time=00:00:03.41 bitrate=12343.1kbits/s speed=0.00891x    frame=  173 fps=0.4 q=34.0 size=    5150kB time=00:00:03.45 bitrate=12196.8kbits/s speed=0.00892x    frame=  174 fps=0.4 q=34.0 size=    5150kB time=00:00:03.50 bitrate=12050.5kbits/s speed=0.00896x    frame=  175 fps=0.4 q=34.0 size=    5150kB time=00:00:03.54 bitrate=11907.6kbits/s speed=0.00898x    frame=  176 fps=0.4 q=34.0 size=    5150kB time=00:00:03.58 bitrate=11771.4kbits/s speed=0.00902x    frame=  177 fps=0.4 q=34.0 size=    5150kB time=00:00:03.62 bitrate=11635.0kbits/s speed=0.00907x    frame=  178 fps=0.4 q=34.0 size=    5150kB time=00:00:03.66 bitrate=11501.8kbits/s speed=0.009x    frame=  179 fps=0.4 q=34.0 size=    5150kB time=00:00:03.70 bitrate=11374.7kbits/s speed=0.00898x    frame=  180 fps=0.4 q=34.0 size=    5150kB time=00:00:03.75 bitrate=11247.3kbits/s speed=0.00902x    frame=  181 fps=0.4 q=34.0 size=    5150kB time=00:00:03.79 bitrate=11122.8kbits/s speed=0.00906x    frame=  182 fps=0.4 q=34.0 size=    5150kB time=00:00:03.83 bitrate=11003.8kbits/s speed=0.00909x    frame=  183 fps=0.4 q=34.0 size=    5150kB time=00:00:03.87 bitrate=10884.6kbits/s speed=0.00913x    frame=  184 fps=0.4 q=34.0 size=    5150kB time=00:00:03.91 bitrate=10767.9kbits/s speed=0.00905x    frame=  185 fps=0.4 q=34.0 size=    5150kB time=00:00:03.95 bitrate=10656.4kbits/s speed=0.00907x    frame=  186 fps=0.4 q=34.0 size=    5150kB time=00:00:04.00 bitrate=10544.5kbits/s speed=0.00909x    frame=  187 fps=0.4 q=34.0 size=    5150kB time=00:00:04.04 bitrate=10435.0kbits/s speed=0.00913x    frame=  188 fps=0.4 q=34.0 size=    5150kB time=00:00:04.08 bitrate=10330.2kbits/s speed=0.00917x    frame=  189 fps=0.4 q=34.0 size=    5150kB time=00:00:04.12 bitrate=10225.1kbits/s speed=0.00917x    frame=  190 fps=0.4 q=34.0 size=    5150kB time=00:00:04.16 bitrate=10122.0kbits/s speed=0.00923x    frame=  191 fps=0.4 q=33.0 size=    5150kB time=00:00:04.20 bitrate=10023.4kbits/s speed=0.00917x    frame=  192 fps=0.4 q=33.0 size=    5150kB time=00:00:04.25 bitrate=9924.4kbits/s speed=0.00924x    frame=  193 fps=0.4 q=33.0 size=    5150kB time=00:00:04.29 bitrate=9827.3kbits/s speed=0.00925x    frame=  194 fps=0.4 q=33.0 size=    5150kB time=00:00:04.33 bitrate=9734.3kbits/s speed=0.00932x    frame=  195 fps=0.4 q=33.0 size=    5150kB time=00:00:04.37 bitrate=9640.9kbits/s speed=0.00928x    frame=  196 fps=0.4 q=33.0 size=    5150kB time=00:00:04.41 bitrate=9549.3kbits/s speed=0.00933x    frame=  197 fps=0.4 q=33.0 size=    5150kB time=00:00:04.45 bitrate=9461.5kbits/s speed=0.00928x    frame=  198 fps=0.4 q=33.0 size=    5150kB time=00:00:04.50 bitrate=9373.2kbits/s speed=0.00932x    frame=  199 fps=0.4 q=33.0 size=    5150kB time=00:00:04.54 bitrate=9286.5kbits/s speed=0.00933x    frame=  200 fps=0.4 q=33.0 size=    5150kB time=00:00:04.58 bitrate=9203.5kbits/s speed=0.00937x    frame=  201 fps=0.4 q=33.0 size=    5150kB time=00:00:04.62 bitrate=9119.9kbits/s speed=0.00935x    frame=  202 fps=0.4 q=33.0 size=    5150kB time=00:00:04.66 bitrate=9037.8kbits/s speed=0.00938x    frame=  203 fps=0.4 q=33.0 size=    5150kB time=00:00:04.70 bitrate=8959.2kbits/s speed=0.00941x    frame=  204 fps=0.4 q=33.0 size=    5150kB time=00:00:04.75 bitrate=8880.0kbits/s speed=0.00928x    frame=  205 fps=0.4 q=33.0 size=    5150kB time=00:00:04.79 bitrate=8802.1kbits/s speed=0.00931x    frame=  206 fps=0.4 q=33.0 size=    5150kB time=00:00:04.83 bitrate=8727.5kbits/s speed=0.00931x    frame=  207 fps=0.4 q=33.0 size=    5150kB time=00:00:04.87 bitrate=8652.3kbits/s speed=0.00936x    frame=  208 fps=0.4 q=33.0 size=    5150kB time=00:00:04.91 bitrate=8578.4kbits/s speed=0.00942x    frame=  209 fps=0.4 q=33.0 size=    5150kB time=00:00:04.95 bitrate=8507.5kbits/s speed=0.00944x    frame=  210 fps=0.4 q=33.0 size=    5150kB time=00:00:05.00 bitrate=8436.0kbits/s speed=0.00949x    frame=  211 fps=0.4 q=33.0 size=    5150kB time=00:00:05.04 bitrate=8365.8kbits/s speed=0.00938x    frame=  212 fps=0.4 q=33.0 size=    5150kB time=00:00:05.08 bitrate=8298.3kbits/s speed=0.00937x    frame=  213 fps=0.4 q=33.0 size=    5150kB time=00:00:05.12 bitrate=8230.3kbits/s speed=0.00937x    frame=  214 fps=0.4 q=33.0 size=    5150kB time=00:00:05.16 bitrate=8163.4kbits/s speed=0.0094x    frame=  215 fps=0.4 q=33.0 size=    5150kB time=00:00:05.20 bitrate=8099.2kbits/s speed=0.00942x    frame=  216 fps=0.4 q=33.0 size=    5150kB time=00:00:05.25 bitrate=8034.4kbits/s speed=0.00942x    frame=  217 fps=0.4 q=33.0 size=    5150kB time=00:00:05.29 bitrate=7970.7kbits/s speed=0.0094x    frame=  218 fps=0.4 q=33.0 size=    5150kB time=00:00:05.33 bitrate=7909.4kbits/s speed=0.00942x    frame=  219 fps=0.4 q=33.0 size=    5150kB time=00:00:05.37 bitrate=7847.6kbits/s speed=0.0094x    frame=  220 fps=0.4 q=33.0 size=    5150kB time=00:00:05.41 bitrate=7786.8kbits/s speed=0.00941x    frame=  221 fps=0.4 q=33.0 size=    5150kB time=00:00:05.45 bitrate=7728.3kbits/s speed=0.00944x    frame=  222 fps=0.4 q=33.0 size=    5150kB time=00:00:05.50 bitrate=7669.3kbits/s speed=0.00948x    frame=  223 fps=0.4 q=33.0 size=    5150kB time=00:00:05.54 bitrate=7611.2kbits/s speed=0.00944x    frame=  224 fps=0.4 q=33.0 size=    5150kB time=00:00:05.58 bitrate=7555.3kbits/s speed=0.00947x    frame=  225 fps=0.4 q=33.0 size=    5150kB time=00:00:05.62 bitrate=7498.9kbits/s speed=0.00946x    frame=  226 fps=0.4 q=33.0 size=    5150kB time=00:00:05.66 bitrate=7443.3kbits/s speed=0.00945x    frame=  227 fps=0.4 q=33.0 size=    5150kB time=00:00:05.70 bitrate=7389.9kbits/s speed=0.00948x    frame=  228 fps=0.4 q=33.0 size=    5150kB time=00:00:05.75 bitrate=7335.9kbits/s speed=0.0095x    frame=  229 fps=0.4 q=33.0 size=    5150kB time=00:00:05.79 bitrate=7282.7kbits/s speed=0.00948x    frame=  230 fps=0.4 q=33.0 size=    5150kB time=00:00:05.83 bitrate=7231.5kbits/s speed=0.00951x    frame=  231 fps=0.4 q=33.0 size=    5150kB time=00:00:05.87 bitrate=7179.8kbits/s speed=0.0095x    frame=  232 fps=0.4 q=33.0 size=    5150kB time=00:00:05.91 bitrate=7128.9kbits/s speed=0.0095x    frame=  233 fps=0.4 q=33.0 size=    5150kB time=00:00:05.95 bitrate=7079.8kbits/s speed=0.0095x    frame=  234 fps=0.4 q=33.0 size=    5150kB time=00:00:06.00 bitrate=7030.3kbits/s speed=0.00953x    frame=  235 fps=0.4 q=33.0 size=    5150kB time=00:00:06.04 bitrate=6981.4kbits/s speed=0.00955x    frame=  236 fps=0.4 q=33.0 size=    5150kB time=00:00:06.08 bitrate=6934.4kbits/s speed=0.00957x    frame=  237 fps=0.4 q=33.0 size=    5150kB time=00:00:06.12 bitrate=6886.8kbits/s speed=0.00956x    frame=  238 fps=0.4 q=33.0 size=    5150kB time=00:00:06.16 bitrate=6839.9kbits/s speed=0.00959x    frame=  239 fps=0.4 q=32.0 size=    5150kB time=00:00:06.20 bitrate=6794.8kbits/s speed=0.00959x    frame=  240 fps=0.4 q=32.0 size=    5150kB time=00:00:06.25 bitrate=6749.1kbits/s speed=0.00964x    frame=  241 fps=0.4 q=32.0 size=    5150kB time=00:00:06.29 bitrate=6704.1kbits/s speed=0.00966x    frame=  242 fps=0.4 q=32.0 size=    5150kB time=00:00:06.33 bitrate=6660.7kbits/s speed=0.0097x    frame=  243 fps=0.4 q=32.0 size=    5150kB time=00:00:06.37 bitrate=6616.8kbits/s speed=0.00975x    frame=  245 fps=0.4 q=32.0 size=    5150kB time=00:00:06.45 bitrate=6531.8kbits/s speed=0.00962x    frame=  246 fps=0.4 q=32.0 size=    5150kB time=00:00:06.50 bitrate=6489.6kbits/s speed=0.00966x    frame=  247 fps=0.4 q=32.0 size=    5150kB time=00:00:06.54 bitrate=6447.9kbits/s speed=0.00969x    frame=  248 fps=0.4 q=32.0 size=    5150kB time=00:00:06.58 bitrate=6407.8kbits/s speed=0.00971x    frame=  249 fps=0.4 q=32.0 size=    5150kB time=00:00:06.62 bitrate=6367.1kbits/s speed=0.00973x    frame=  250 fps=0.4 q=32.0 size=    5150kB time=00:00:06.66 bitrate=6327.0kbits/s speed=0.00976x    frame=  251 fps=0.4 q=32.0 size=    5150kB time=00:00:06.70 bitrate=6288.4kbits/s speed=0.00968x    frame=  252 fps=0.4 q=32.0 size=    5150kB time=00:00:06.75 bitrate=6249.2kbits/s speed=0.00967x    frame=  253 fps=0.4 q=32.0 size=    5150kB time=00:00:06.79 bitrate=6210.6kbits/s speed=0.0097x    frame=  254 fps=0.4 q=32.0 size=   10325kB time=00:00:06.83 bitrate=12376.4kbits/s speed=0.00971x    frame=  255 fps=0.4 q=32.0 size=   10325kB time=00:00:06.87 bitrate=12300.8kbits/s speed=0.00972x    frame=  256 fps=0.4 q=32.0 size=   10325kB time=00:00:06.91 bitrate=12226.1kbits/s speed=0.00976x    frame=  257 fps=0.4 q=32.0 size=   10325kB time=00:00:06.95 bitrate=12154.1kbits/s speed=0.00972x    frame=  258 fps=0.4 q=32.0 size=   10325kB time=00:00:07.00 bitrate=12081.1kbits/s speed=0.00968x    frame=  259 fps=0.4 q=32.0 size=   10325kB time=00:00:07.04 bitrate=12009.1kbits/s speed=0.00968x    frame=  260 fps=0.4 q=32.0 size=   10325kB time=00:00:07.08 bitrate=11939.6kbits/s speed=0.0097x    frame=  261 fps=0.4 q=32.0 size=   10325kB time=00:00:07.12 bitrate=11869.2kbits/s speed=0.00972x    frame=  262 fps=0.4 q=32.0 size=   10325kB time=00:00:07.16 bitrate=11799.7kbits/s speed=0.00973x    frame=  263 fps=0.4 q=32.0 size=   10325kB time=00:00:07.20 bitrate=11732.6kbits/s speed=0.00975x    frame=  264 fps=0.4 q=32.0 size=   10325kB time=00:00:07.25 bitrate=11664.6kbits/s speed=0.0097x    frame=  265 fps=0.4 q=32.0 size=   10325kB time=00:00:07.29 bitrate=11597.4kbits/s speed=0.0097x    frame=  266 fps=0.4 q=32.0 size=   10325kB time=00:00:07.33 bitrate=11532.6kbits/s speed=0.00969x    frame=  267 fps=0.4 q=32.0 size=   10325kB time=00:00:07.37 bitrate=11466.9kbits/s speed=0.00972x    frame=  268 fps=0.4 q=32.0 size=   10325kB time=00:00:07.41 bitrate=11402.0kbits/s speed=0.00975x    frame=  269 fps=0.4 q=32.0 size=   10325kB time=00:00:07.45 bitrate=11339.3kbits/s speed=0.00977x    frame=  270 fps=0.4 q=32.0 size=   10325kB time=00:00:07.50 bitrate=11275.8kbits/s speed=0.00976x    frame=  271 fps=0.3 q=32.0 size=   10325kB time=00:00:07.54 bitrate=11213.1kbits/s speed=0.00974x    frame=  272 fps=0.3 q=32.0 size=   10325kB time=00:00:07.58 bitrate=11152.4kbits/s speed=0.00968x    frame=  273 fps=0.3 q=32.0 size=   10325kB time=00:00:07.62 bitrate=11091.0kbits/s speed=0.0097x    frame=  274 fps=0.3 q=32.0 size=   10325kB time=00:00:07.66 bitrate=11030.3kbits/s speed=0.00972x    frame=  276 fps=0.3 q=32.0 size=   10325kB time=00:00:07.75 bitrate=10912.2kbits/s speed=0.00979x    frame=  277 fps=0.3 q=31.0 size=   10325kB time=00:00:07.79 bitrate=10853.3kbits/s speed=0.00982x    frame=  278 fps=0.3 q=31.0 size=   10325kB time=00:00:07.83 bitrate=10796.5kbits/s speed=0.00986x    frame=  279 fps=0.3 q=31.0 size=   10325kB time=00:00:07.87 bitrate=10739.0kbits/s speed=0.00975x    frame=  280 fps=0.3 q=31.0 size=   10325kB time=00:00:07.91 bitrate=10682.0kbits/s speed=0.00978x    frame=  281 fps=0.3 q=31.0 size=   10325kB time=00:00:07.95 bitrate=10627.0kbits/s speed=0.00982x    frame=  282 fps=0.3 q=31.0 size=   10325kB time=00:00:08.00 bitrate=10571.2kbits/s speed=0.00984x    frame=  283 fps=0.3 q=31.0 size=   10325kB time=00:00:08.04 bitrate=10516.0kbits/s speed=0.00986x    frame=  284 fps=0.3 q=31.0 size=   10325kB time=00:00:08.08 bitrate=10462.7kbits/s speed=0.00989x    frame=  285 fps=0.3 q=31.0 size=   10325kB time=00:00:08.12 bitrate=10408.6kbits/s speed=0.00977x    frame=  286 fps=0.3 q=31.0 size=   10325kB time=00:00:08.16 bitrate=10355.1kbits/s speed=0.00979x    frame=  287 fps=0.3 q=31.0 size=   10325kB time=00:00:08.20 bitrate=10303.3kbits/s speed=0.00981x    frame=  288 fps=0.3 q=31.0 size=   10325kB time=00:00:08.25 bitrate=10250.9kbits/s speed=0.00981x    frame=  289 fps=0.3 q=31.0 size=   10325kB time=00:00:08.29 bitrate=10199.0kbits/s speed=0.00983x    frame=  290 fps=0.3 q=31.0 size=   10325kB time=00:00:08.33 bitrate=10148.8kbits/s speed=0.00984x    frame=  291 fps=0.3 q=31.0 size=   10325kB time=00:00:08.37 bitrate=10097.9kbits/s speed=0.00977x    frame=  292 fps=0.3 q=31.0 size=   10325kB time=00:00:08.41 bitrate=10047.5kbits/s speed=0.00977x    frame=  293 fps=0.3 q=31.0 size=   10325kB time=00:00:08.45 bitrate=9998.8kbits/s speed=0.0098x    frame=  294 fps=0.3 q=31.0 size=   10325kB time=00:00:08.50 bitrate=9949.4kbits/s speed=0.00981x    frame=  295 fps=0.3 q=31.0 size=   10325kB time=00:00:08.54 bitrate=9900.5kbits/s speed=0.00983x    frame=  296 fps=0.3 q=31.0 size=   10325kB time=00:00:08.58 bitrate=9853.2kbits/s speed=0.00985x    frame=  297 fps=0.3 q=31.0 size=   10325kB time=00:00:08.62 bitrate=9805.3kbits/s speed=0.00975x    frame=  298 fps=0.3 q=31.0 size=   10325kB time=00:00:08.66 bitrate=9757.7kbits/s speed=0.00979x    frame=  299 fps=0.3 q=31.0 size=   10325kB time=00:00:08.70 bitrate=9711.8kbits/s speed=0.00981x    frame=  300 fps=0.3 q=31.0 size=   10325kB time=00:00:08.75 bitrate=9665.2kbits/s speed=0.0098x    frame=  301 fps=0.3 q=31.0 size=   10325kB time=00:00:08.79 bitrate=9619.0kbits/s speed=0.00983x    frame=  302 fps=0.3 q=31.0 size=   10325kB time=00:00:08.83 bitrate=9574.4kbits/s speed=0.00984x    frame=  303 fps=0.3 q=31.0 size=   10325kB time=00:00:08.87 bitrate=9529.1kbits/s speed=0.00987x    frame=  304 fps=0.3 q=31.0 size=   10325kB time=00:00:08.91 bitrate=9484.2kbits/s speed=0.00982x    frame=  305 fps=0.3 q=31.0 size=   10325kB time=00:00:08.95 bitrate=9440.8kbits/s speed=0.00982x    frame=  306 fps=0.3 q=31.0 size=   10325kB time=00:00:09.00 bitrate=9396.7kbits/s speed=0.00986x    frame=  307 fps=0.3 q=31.0 size=   10325kB time=00:00:09.04 bitrate=9353.1kbits/s speed=0.00984x    frame=  308 fps=0.3 q=31.0 size=   10325kB time=00:00:09.08 bitrate=9310.9kbits/s speed=0.00987x    frame=  309 fps=0.3 q=31.0 size=   10325kB time=00:00:09.12 bitrate=9268.0kbits/s speed=0.0099x    frame=  310 fps=0.3 q=31.0 size=   10325kB time=00:00:09.16 bitrate=9225.6kbits/s speed=0.00984x    frame=  311 fps=0.3 q=31.0 size=   10325kB time=00:00:09.20 bitrate=9184.5kbits/s speed=0.00987x    frame=  312 fps=0.3 q=31.0 size=   10325kB time=00:00:09.25 bitrate=9142.8kbits/s speed=0.0099x    frame=  314 fps=0.3 q=31.0 size=   10325kB time=00:00:09.33 bitrate=9061.5kbits/s speed=0.00988x    frame=  315 fps=0.3 q=31.0 size=   10325kB time=00:00:09.37 bitrate=9020.9kbits/s speed=0.0099x    frame=  316 fps=0.3 q=31.0 size=   10325kB time=00:00:09.41 bitrate=8980.7kbits/s speed=0.00994x    frame=  319 fps=0.3 q=31.0 size=   10325kB time=00:00:09.54 bitrate=8863.1kbits/s speed=0.00998x    frame=  320 fps=0.3 q=31.0 size=   10325kB time=00:00:09.58 bitrate=8825.1kbits/s speed=0.01x    frame=  321 fps=0.3 q=31.0 size=   10325kB time=00:00:09.62 bitrate=8786.6kbits/s speed=0.00993x    frame=  322 fps=0.3 q=31.0 size=   10325kB time=00:00:09.66 bitrate=8748.5kbits/s speed=0.00996x    frame=  323 fps=0.3 q=31.0 size=   10325kB time=00:00:09.70 bitrate=8711.5kbits/s speed=0.00999x    frame=  324 fps=0.3 q=31.0 size=   10325kB time=00:00:09.75 bitrate=8674.0kbits/s speed=0.01x    frame=  325 fps=0.3 q=31.0 size=   10325kB time=00:00:09.79 bitrate=8636.8kbits/s speed=0.01x    frame=  326 fps=0.3 q=31.0 size=   10325kB time=00:00:09.83 bitrate=8600.8kbits/s speed=0.01x    frame=  327 fps=0.3 q=31.0 size=   10325kB time=00:00:09.87 bitrate=8564.2kbits/s speed=0.0101x    frame=  328 fps=0.3 q=31.0 size=   10325kB time=00:00:09.91 bitrate=8527.9kbits/s speed=0.00999x    frame=  329 fps=0.3 q=31.0 size=   10325kB time=00:00:09.95 bitrate=8492.8kbits/s speed=0.01x    frame=  330 fps=0.3 q=31.0 size=   10325kB time=00:00:10.00 bitrate=8457.2kbits/s speed=0.01x    frame=  331 fps=0.3 q=31.0 size=   10325kB time=00:00:10.04 bitrate=8421.8kbits/s speed=0.0101x    frame=  332 fps=0.3 q=31.0 size=   10325kB time=00:00:10.08 bitrate=8387.6kbits/s speed=0.0101x    frame=  333 fps=0.3 q=28.0 size=   10325kB time=00:00:10.12 bitrate=8352.8kbits/s speed=0.0101x    frame=  334 fps=0.3 q=31.0 size=   10325kB time=00:00:10.16 bitrate=8318.3kbits/s speed=0.01x    frame=  335 fps=0.3 q=31.0 size=   10325kB time=00:00:10.20 bitrate=8284.9kbits/s speed=0.0101x    frame=  336 fps=0.3 q=31.0 size=   10325kB time=00:00:10.25 bitrate=8250.9kbits/s speed=0.0101x    frame=  337 fps=0.3 q=31.0 size=   10325kB time=00:00:10.29 bitrate=8217.2kbits/s speed=0.0101x    frame=  338 fps=0.3 q=31.0 size=   15034kB time=00:00:10.33 bitrate=11917.8kbits/s speed=0.0101x    frame=  343 fps=0.3 q=30.0 size=   15034kB time=00:00:10.54 bitrate=11681.6kbits/s speed=0.0103x    frame=  344 fps=0.3 q=31.0 size=   15034kB time=00:00:10.58 bitrate=11636.3kbits/s speed=0.0103x    frame=  345 fps=0.3 q=30.0 size=   15034kB time=00:00:10.62 bitrate=11590.3kbits/s speed=0.0103x    frame=  347 fps=0.3 q=30.0 size=   15034kB time=00:00:10.70 bitrate=11500.5kbits/s speed=0.0104x    frame=  348 fps=0.3 q=28.0 size=   15034kB time=00:00:10.75 bitrate=11455.6kbits/s speed=0.0104x    frame=  349 fps=0.3 q=30.0 size=   15034kB time=00:00:10.79 bitrate=11411.0kbits/s speed=0.0105x    frame=  350 fps=0.3 q=30.0 size=   15034kB time=00:00:10.83 bitrate=11367.8kbits/s speed=0.0105x    frame=  351 fps=0.3 q=30.0 size=   15034kB time=00:00:10.87 bitrate=11323.9kbits/s speed=0.0105x    frame=  353 fps=0.3 q=30.0 size=   15034kB time=00:00:10.95 bitrate=11238.1kbits/s speed=0.0106x    frame=  355 fps=0.3 q=30.0 size=   15034kB time=00:00:11.04 bitrate=11152.7kbits/s speed=0.0106x    frame=  357 fps=0.3 q=30.0 size=   15034kB time=00:00:11.12 bitrate=11069.5kbits/s speed=0.0106x    frame=  358 fps=0.3 q=30.0 size=   15034kB time=00:00:11.16 bitrate=11027.8kbits/s speed=0.0106x    frame=  359 fps=0.3 q=30.0 size=   15034kB time=00:00:11.20 bitrate=10987.5kbits/s speed=0.0106x    frame=  360 fps=0.3 q=30.0 size=   15034kB time=00:00:11.25 bitrate=10946.5kbits/s speed=0.0107x    frame=  361 fps=0.3 q=30.0 size=   15034kB time=00:00:11.29 bitrate=10905.8kbits/s speed=0.0106x    frame=  362 fps=0.3 q=30.0 size=   15034kB time=00:00:11.33 bitrate=10866.3kbits/s speed=0.0106x    frame=  363 fps=0.3 q=30.0 size=   15034kB time=00:00:11.37 bitrate=10826.2kbits/s speed=0.0107x    frame=  365 fps=0.3 q=30.0 size=   15034kB time=00:00:11.45 bitrate=10747.8kbits/s speed=0.0107x    frame=  366 fps=0.3 q=30.0 size=   15034kB time=00:00:11.50 bitrate=10708.5kbits/s speed=0.0107x    frame=  367 fps=0.3 q=30.0 size=   15034kB time=00:00:11.54 bitrate=10669.6kbits/s speed=0.0107x    frame=  369 fps=0.3 q=30.0 size=   15034kB time=00:00:11.62 bitrate=10593.4kbits/s speed=0.0107x    frame=  370 fps=0.3 q=30.0 size=   15034kB time=00:00:11.66 bitrate=10555.3kbits/s speed=0.0107x    frame=  371 fps=0.3 q=30.0 size=   15034kB time=00:00:11.70 bitrate=10518.3kbits/s speed=0.0108x    frame=  372 fps=0.3 q=30.0 size=   15034kB time=00:00:11.75 bitrate=10480.7kbits/s speed=0.0107x    frame=  373 fps=0.3 q=30.0 size=   15034kB time=00:00:11.79 bitrate=10443.4kbits/s speed=0.0108x    frame=  374 fps=0.3 q=30.0 size=   15034kB time=00:00:11.83 bitrate=10407.2kbits/s speed=0.0108x    frame=  376 fps=0.3 q=30.0 size=   15034kB time=00:00:11.91 bitrate=10333.9kbits/s speed=0.0108x    frame=  377 fps=0.3 q=30.0 size=   15034kB time=00:00:11.95 bitrate=10298.4kbits/s speed=0.0108x    frame=  378 fps=0.3 q=30.0 size=   15034kB time=00:00:12.00 bitrate=10262.4kbits/s speed=0.0108x    frame=  380 fps=0.3 q=30.0 size=   15034kB time=00:00:12.08 bitrate=10191.9kbits/s speed=0.0108x    frame=  381 fps=0.3 q=30.0 size=   15034kB time=00:00:12.12 bitrate=10156.6kbits/s speed=0.0109x    frame=  382 fps=0.3 q=30.0 size=   15034kB time=00:00:12.16 bitrate=10121.5kbits/s speed=0.0109x    frame=  385 fps=0.3 q=30.0 size=   15034kB time=00:00:12.29 bitrate=10018.6kbits/s speed=0.0109x    frame=  386 fps=0.3 q=30.0 size=   15034kB time=00:00:12.33 bitrate=9985.3kbits/s speed=0.011x    frame=  387 fps=0.3 q=30.0 size=   15034kB time=00:00:12.37 bitrate=9951.4kbits/s speed=0.011x    frame=  388 fps=0.3 q=29.0 size=   15034kB time=00:00:12.41 bitrate=9917.8kbits/s speed=0.011x    frame=  389 fps=0.3 q=29.0 size=   15034kB time=00:00:12.45 bitrate=9885.1kbits/s speed=0.011x    frame=  390 fps=0.3 q=29.0 size=   15034kB time=00:00:12.50 bitrate=9851.9kbits/s speed=0.011x    frame=  394 fps=0.3 q=29.0 size=   15034kB time=00:00:12.66 bitrate=9722.0kbits/s speed=0.011x    frame=  395 fps=0.3 q=29.0 size=   15034kB time=00:00:12.70 bitrate=9690.7kbits/s speed=0.0111x    frame=  396 fps=0.3 q=29.0 size=   15034kB time=00:00:12.75 bitrate=9658.8kbits/s speed=0.0111x    frame=  400 fps=0.3 q=29.0 size=   15034kB time=00:00:12.91 bitrate=9533.9kbits/s speed=0.0111x    frame=  401 fps=0.3 q=29.0 size=   15034kB time=00:00:12.95 bitrate=9503.7kbits/s speed=0.0111x    frame=  403 fps=0.3 q=29.0 size=   15034kB time=00:00:13.04 bitrate=9442.5kbits/s speed=0.0112x    frame=  406 fps=0.3 q=29.0 size=   15034kB time=00:00:13.16 bitrate=9352.9kbits/s speed=0.0112x    frame=  407 fps=0.3 q=29.0 size=   15034kB time=00:00:13.20 bitrate=9323.9kbits/s speed=0.0112x    frame=  408 fps=0.3 q=29.0 size=   15034kB time=00:00:13.25 bitrate=9294.3kbits/s speed=0.0112x    frame=  411 fps=0.3 q=28.0 size=   15034kB time=00:00:13.37 bitrate=9207.5kbits/s speed=0.0113x    frame=  412 fps=0.3 q=28.0 size=   15034kB time=00:00:13.41 bitrate=9178.6kbits/s speed=0.0113x    frame=  413 fps=0.3 q=28.0 size=   15034kB time=00:00:13.45 bitrate=9150.7kbits/s speed=0.0113x    frame=  416 fps=0.3 q=28.0 size=   15034kB time=00:00:13.58 bitrate=9066.5kbits/s speed=0.0113x    frame=  417 fps=0.3 q=28.0 size=   15034kB time=00:00:13.62 bitrate=9038.5kbits/s speed=0.0114x    frame=  418 fps=0.3 q=28.0 size=   15034kB time=00:00:13.66 bitrate=9010.7kbits/s speed=0.0114x    frame=  421 fps=0.3 q=28.0 size=   15034kB time=00:00:13.79 bitrate=8929.1kbits/s speed=0.0115x    frame=  422 fps=0.3 q=28.0 size=   15034kB time=00:00:13.83 bitrate=8902.6kbits/s speed=0.0115x    frame=  423 fps=0.4 q=28.0 size=   15034kB time=00:00:13.87 bitrate=8875.7kbits/s speed=0.0115x    frame=  426 fps=0.3 q=28.0 size=   15034kB time=00:00:14.00 bitrate=8796.4kbits/s speed=0.0115x    frame=  427 fps=0.4 q=28.0 size=   15034kB time=00:00:14.04 bitrate=8770.1kbits/s speed=0.0115x    frame=  430 fps=0.4 q=28.0 size=   15034kB time=00:00:14.16 bitrate=8692.7kbits/s speed=0.0116x    frame=  432 fps=0.4 q=28.0 size=   15034kB time=00:00:14.25 bitrate=8642.1kbits/s speed=0.0116x    frame=  433 fps=0.4 q=28.0 size=   15034kB time=00:00:14.29 bitrate=8616.7kbits/s speed=0.0116x    frame=  434 fps=0.4 q=28.0 size=   15034kB time=00:00:14.33 bitrate=8592.1kbits/s speed=0.0116x    frame=  438 fps=0.4 q=27.0 size=   15034kB time=00:00:14.50 bitrate=8493.1kbits/s speed=0.0117x    frame=  439 fps=0.4 q=27.0 size=   15034kB time=00:00:14.54 bitrate=8468.6kbits/s speed=0.0117x    frame=  440 fps=0.4 q=27.0 size=   15034kB time=00:00:14.58 bitrate=8444.8kbits/s speed=0.0117x    frame=  444 fps=0.4 q=27.0 size=   15034kB time=00:00:14.75 bitrate=8349.2kbits/s speed=0.0117x    frame=  445 fps=0.4 q=27.0 size=   15034kB time=00:00:14.79 bitrate=8325.5kbits/s speed=0.0118x    frame=  446 fps=0.4 q=27.0 size=   15034kB time=00:00:14.83 bitrate=8302.5kbits/s speed=0.0118x    frame=  448 fps=0.4 q=27.0 size=   15034kB time=00:00:14.91 bitrate=8255.7kbits/s speed=0.0118x    frame=  449 fps=0.4 q=27.0 size=   15034kB time=00:00:14.95 bitrate=8233.1kbits/s speed=0.0118x    frame=  450 fps=0.4 q=27.0 size=   15034kB time=00:00:15.00 bitrate=8210.0kbits/s speed=0.0118x    frame=  452 fps=0.4 q=27.0 size=   15034kB time=00:00:15.08 bitrate=8164.9kbits/s speed=0.0118x    frame=  453 fps=0.4 q=27.0 size=   15034kB time=00:00:15.12 bitrate=8142.2kbits/s speed=0.0118x    frame=  454 fps=0.4 q=27.0 size=   15034kB time=00:00:15.16 bitrate=8119.7kbits/s speed=0.0118x    frame=  455 fps=0.4 q=27.0 size=   20173kB time=00:00:15.20 bitrate=10865.8kbits/s speed=0.0118x    frame=  456 fps=0.4 q=27.0 size=   20173kB time=00:00:15.25 bitrate=10835.9kbits/s speed=0.0118x    frame=  457 fps=0.4 q=27.0 size=   20173kB time=00:00:15.29 bitrate=10806.1kbits/s speed=0.0118x    frame=  458 fps=0.4 q=27.0 size=   20173kB time=00:00:15.33 bitrate=10777.3kbits/s speed=0.0118x    frame=  459 fps=0.4 q=27.0 size=   20173kB time=00:00:15.37 bitrate=10747.8kbits/s speed=0.0118x    frame=  460 fps=0.4 q=27.0 size=   20173kB time=00:00:15.41 bitrate=10718.5kbits/s speed=0.0118x    frame=  461 fps=0.4 q=27.0 size=   20173kB time=00:00:15.45 bitrate=10690.1kbits/s speed=0.0118x    frame=  463 fps=0.4 q=27.0 size=   20173kB time=00:00:15.54 bitrate=10632.3kbits/s speed=0.0118x    frame=  464 fps=0.4 q=27.0 size=   20173kB time=00:00:15.58 bitrate=10604.4kbits/s speed=0.0119x    frame=  465 fps=0.4 q=27.0 size=   20173kB time=00:00:15.62 bitrate=10575.9kbits/s speed=0.0119x    frame=  467 fps=0.4 q=27.0 size=   20173kB time=00:00:15.70 bitrate=10520.0kbits/s speed=0.0119x    frame=  468 fps=0.4 q=27.0 size=   20173kB time=00:00:15.75 bitrate=10491.9kbits/s speed=0.0119x    frame=  469 fps=0.4 q=27.0 size=   20173kB time=00:00:15.79 bitrate=10464.0kbits/s speed=0.0119x    frame=  470 fps=0.4 q=27.0 size=   20173kB time=00:00:15.83 bitrate=10436.9kbits/s speed=0.0119x    frame=  471 fps=0.4 q=27.0 size=   20173kB time=00:00:15.87 bitrate=10409.3kbits/s speed=0.0119x    frame=  472 fps=0.4 q=27.0 size=   20173kB time=00:00:15.91 bitrate=10381.9kbits/s speed=0.0119x    frame=  476 fps=0.4 q=27.0 size=   20173kB time=00:00:16.08 bitrate=10274.7kbits/s speed=0.0119x    frame=  477 fps=0.4 q=27.0 size=   20173kB time=00:00:16.12 bitrate=10247.9kbits/s speed=0.0119x    frame=  478 fps=0.4 q=27.0 size=   20173kB time=00:00:16.16 bitrate=10221.3kbits/s speed=0.0119x    frame=  479 fps=0.4 q=27.0 size=   20173kB time=00:00:16.20 bitrate=10195.5kbits/s speed=0.0119x    frame=  480 fps=0.4 q=27.0 size=   20173kB time=00:00:16.25 bitrate=10169.1kbits/s speed=0.0119x    frame=  481 fps=0.4 q=27.0 size=   20173kB time=00:00:16.29 bitrate=10142.9kbits/s speed=0.012x    frame=  482 fps=0.4 q=27.0 size=   20173kB time=00:00:16.33 bitrate=10117.5kbits/s speed=0.012x    frame=  483 fps=0.4 q=27.0 size=   20173kB time=00:00:16.37 bitrate=10091.5kbits/s speed=0.0119x    frame=  484 fps=0.4 q=27.0 size=   20173kB time=00:00:16.41 bitrate=10065.7kbits/s speed=0.0119x    frame=  485 fps=0.4 q=27.0 size=   20173kB time=00:00:16.45 bitrate=10040.6kbits/s speed=0.0119x    frame=  487 fps=0.4 q=27.0 size=   20173kB time=00:00:16.54 bitrate=9989.6kbits/s speed=0.0119x    frame=  488 fps=0.4 q=27.0 size=   20173kB time=00:00:16.58 bitrate=9964.9kbits/s speed=0.012x    frame=  489 fps=0.4 q=27.0 size=   20173kB time=00:00:16.62 bitrate=9939.8kbits/s speed=0.012x    frame=  490 fps=0.3 q=27.0 size=   20173kB time=00:00:16.66 bitrate=9914.7kbits/s speed=0.0119x    frame=  491 fps=0.3 q=27.0 size=   20173kB time=00:00:16.70 bitrate=9890.4kbits/s speed=0.0119x    frame=  492 fps=0.3 q=27.0 size=   20173kB time=00:00:16.75 bitrate=9865.6kbits/s speed=0.0119x    frame=  493 fps=0.4 q=27.0 size=   20173kB time=00:00:16.79 bitrate=9840.9kbits/s speed=0.0119x    frame=  494 fps=0.3 q=27.0 size=   20173kB time=00:00:16.83 bitrate=9816.9kbits/s speed=0.0119x    frame=  495 fps=0.4 q=27.0 size=   20173kB time=00:00:16.87 bitrate=9792.5kbits/s speed=0.0119x    frame=  496 fps=0.4 q=27.0 size=   20173kB time=00:00:16.91 bitrate=9768.2kbits/s speed=0.012x    frame=  497 fps=0.3 q=27.0 size=   20173kB time=00:00:16.95 bitrate=9744.6kbits/s speed=0.0119x    frame=  498 fps=0.3 q=27.0 size=   20173kB time=00:00:17.00 bitrate=9720.5kbits/s speed=0.0119x    frame=  499 fps=0.3 q=27.0 size=   20173kB time=00:00:17.04 bitrate=9696.6kbits/s speed=0.0119x    frame=  500 fps=0.3 q=27.0 size=   20173kB time=00:00:17.08 bitrate=9673.3kbits/s speed=0.0119x    frame=  500 fps=0.3 q=-1.0 Lsize=   29047kB time=00:00:20.70 bitrate=11490.3kbits/s speed=0.0125x    
video:29042kB audio:0kB subtitle:0kB other streams:0kB global headers:0kB muxing overhead: 0.016440%
bench: utime=6274.556s
bench: maxrss=4184656kB
[libx264 @ 0x44e31c0] frame I:3     Avg QP:21.11  size:302281
[libx264 @ 0x44e31c0] frame P:267   Avg QP:29.09  size: 75898
[libx264 @ 0x44e31c0] frame B:230   Avg QP:28.68  size: 37248
[libx264 @ 0x44e31c0] consecutive B-frames: 34.8% 13.6% 12.0% 16.0% 14.0%  9.6%  0.0%  0.0%  0.0%  0.0%  0.0%  0.0%  0.0%  0.0%  0.0%  0.0%  0.0%
[libx264 @ 0x44e31c0] mb I  I16..4: 10.4% 75.1% 14.5%
[libx264 @ 0x44e31c0] mb P  I16..4: 16.5% 15.0%  1.3%  P16..4: 31.2% 19.0%  2.9%  0.1%  0.0%    skip:14.0%
[libx264 @ 0x44e31c0] mb B  I16..4:  1.2%  2.5%  0.2%  B16..8: 30.3%  8.4%  0.9%  direct: 1.5%  skip:55.0%  L0:42.7% L1:53.2% BI: 4.2%
[libx264 @ 0x44e31c0] final ratefactor: 24.30
[libx264 @ 0x44e31c0] 8x8 transform intra:48.3% inter:85.7%
[libx264 @ 0x44e31c0] direct mvs  spatial:98.7% temporal:1.3%
[libx264 @ 0x44e31c0] coded y,uvDC,uvAC intra: 20.5% 23.6% 2.5% inter: 7.0% 6.7% 0.1%
[libx264 @ 0x44e31c0] i16 v,h,dc,p:  7% 15%  3% 75%
[libx264 @ 0x44e31c0] i8 v,h,dc,ddl,ddr,vr,hd,vl,hu: 10%  8% 15%  7% 11% 10% 13% 10% 16%
[libx264 @ 0x44e31c0] i4 v,h,dc,ddl,ddr,vr,hd,vl,hu: 17% 12% 36%  4%  7%  6%  7%  4%  7%
[libx264 @ 0x44e31c0] i8c dc,h,v,p: 20% 41% 15% 23%
[libx264 @ 0x44e31c0] Weighted P-Frames: Y:3.0% UV:2.6%
[libx264 @ 0x44e31c0] ref P L0: 62.7% 18.1%  9.0%  3.0%  1.7%  1.3%  1.0%  0.7%  0.5%  0.4%  0.4%  0.3%  0.3%  0.3%  0.2%  0.2%
[libx264 @ 0x44e31c0] ref B L0: 89.7%  5.1%  1.9%  0.9%  0.7%  0.4%  0.4%  0.2%  0.2%  0.1%  0.1%  0.1%  0.1%  0.1%  0.1%
[libx264 @ 0x44e31c0] ref B L1: 98.5%  1.5%
[libx264 @ 0x44e31c0] kb/s:11419.62
